<svg width="26" height="20" viewBox="0 0 26 20" fill="none" xmlns="http://www.w3.org/2000/svg">
<path d="M1.44444 5.71429C1.03519 5.71429 0.692371 5.57714 0.416 5.30286C0.138667 5.02952 0 4.69048 0 4.28571V1.42857C0 1.02381 0.138667 0.684286 0.416 0.41C0.692371 0.136667 1.03519 0 1.44444 0H4.33333C4.74259 0 5.08589 0.136667 5.36322 0.41C5.63959 0.684286 5.77778 1.02381 5.77778 1.42857V4.28571C5.77778 4.69048 5.63959 5.02952 5.36322 5.30286C5.08589 5.57714 4.74259 5.71429 4.33333 5.71429H1.44444ZM8.66667 5.71429C8.25741 5.71429 7.91459 5.57714 7.63822 5.30286C7.36089 5.02952 7.22222 4.69048 7.22222 4.28571V1.42857C7.22222 1.02381 7.36089 0.684286 7.63822 0.41C7.91459 0.136667 8.25741 0 8.66667 0H24.5556C24.9648 0 25.3076 0.136667 25.584 0.41C25.8613 0.684286 26 1.02381 26 1.42857V4.28571C26 4.69048 25.8613 5.02952 25.584 5.30286C25.3076 5.57714 24.9648 5.71429 24.5556 5.71429H8.66667ZM8.66667 12.8571C8.25741 12.8571 7.91459 12.72 7.63822 12.4457C7.36089 12.1724 7.22222 11.8333 7.22222 11.4286V8.57143C7.22222 8.16667 7.36089 7.82714 7.63822 7.55286C7.91459 7.27952 8.25741 7.14286 8.66667 7.14286H24.5556C24.9648 7.14286 25.3076 7.27952 25.584 7.55286C25.8613 7.82714 26 8.16667 26 8.57143V11.4286C26 11.8333 25.8613 12.1724 25.584 12.4457C25.3076 12.72 24.9648 12.8571 24.5556 12.8571H8.66667ZM1.44444 12.8571C1.03519 12.8571 0.692371 12.72 0.416 12.4457C0.138667 12.1724 0 11.8333 0 11.4286V8.57143C0 8.16667 0.138667 7.82714 0.416 7.55286C0.692371 7.27952 1.03519 7.14286 1.44444 7.14286H4.33333C4.74259 7.14286 5.08589 7.27952 5.36322 7.55286C5.63959 7.82714 5.77778 8.16667 5.77778 8.57143V11.4286C5.77778 11.8333 5.63959 12.1724 5.36322 12.4457C5.08589 12.72 4.74259 12.8571 4.33333 12.8571H1.44444ZM8.66667 20C8.25741 20 7.91459 19.8629 7.63822 19.5886C7.36089 19.3152 7.22222 18.9762 7.22222 18.5714V15.7143C7.22222 15.3095 7.36089 14.97 7.63822 14.6957C7.91459 14.4224 8.25741 14.2857 8.66667 14.2857H24.5556C24.9648 14.2857 25.3076 14.4224 25.584 14.6957C25.8613 14.97 26 15.3095 26 15.7143V18.5714C26 18.9762 25.8613 19.3152 25.584 19.5886C25.3076 19.8629 24.9648 20 24.5556 20H8.66667ZM1.44444 20C1.03519 20 0.692371 19.8629 0.416 19.5886C0.138667 19.3152 0 18.9762 0 18.5714V15.7143C0 15.3095 0.138667 14.97 0.416 14.6957C0.692371 14.4224 1.03519 14.2857 1.44444 14.2857H4.33333C4.74259 14.2857 5.08589 14.4224 5.36322 14.6957C5.63959 14.97 5.77778 15.3095 5.77778 15.7143V18.5714C5.77778 18.9762 5.63959 19.3152 5.36322 19.5886C5.08589 19.8629 4.74259 20 4.33333 20H1.44444Z" fill="white"/>
</svg>
