<svg width="26" height="26" viewBox="0 0 26 26" fill="none" xmlns="http://www.w3.org/2000/svg">
<path d="M6.3375 13.64H19.6625V17.104H20.9625V12.36H13.65V8.8H12.35V12.36H5.0375V17.104H6.3375V13.64Z" fill="white"/>
<path d="M9.75 18H1.625C0.727537 18 0 18.7163 0 19.6V24.4C0 25.2837 0.727537 26 1.625 26H9.75C10.6475 26 11.375 25.2837 11.375 24.4V19.6C11.375 18.7163 10.6475 18 9.75 18Z" fill="white"/>
<path d="M24.375 18H16.25C15.3525 18 14.625 18.7163 14.625 19.6V24.4C14.625 25.2837 15.3525 26 16.25 26H24.375C25.2725 26 26 25.2837 26 24.4V19.6C26 18.7163 25.2725 18 24.375 18Z" fill="white"/>
<path d="M17.0625 0H8.9375C8.04004 0 7.3125 0.716344 7.3125 1.6V6.4C7.3125 7.28366 8.04004 8 8.9375 8H17.0625C17.96 8 18.6875 7.28366 18.6875 6.4V1.6C18.6875 0.716344 17.96 0 17.0625 0Z" fill="white"/>
</svg>
