<svg width="10" height="16" viewBox="0 0 10 16" fill="none" xmlns="http://www.w3.org/2000/svg">
<path d="M9.49414 10.6844C9.49414 11.2584 9.33918 11.798 9.02927 12.3032C8.73174 12.8084 8.28546 13.2332 7.69042 13.5776C7.10778 13.922 6.41356 14.1287 5.60778 14.1976V15.5925H4.3991V14.1976C3.23381 14.0943 2.29166 13.7556 1.57265 13.1815C0.853645 12.6075 0.494141 11.8497 0.494141 10.9083H2.76274C2.79993 11.356 2.95488 11.7292 3.22761 12.0277C3.50034 12.3147 3.89083 12.4984 4.3991 12.5788V8.79C3.56852 8.59483 2.8929 8.39965 2.37224 8.20447C1.85158 7.99781 1.4053 7.67634 1.0334 7.24006C0.673893 6.80378 0.494141 6.20677 0.494141 5.44902C0.494141 4.49609 0.853645 3.70964 1.57265 3.08966C2.29166 2.4582 3.23381 2.09081 4.3991 1.98748V0.592529H5.60778V1.98748C6.69869 2.07933 7.57265 2.4008 8.22968 2.95189C8.8991 3.4915 9.2772 4.23776 9.36398 5.19069H7.09538C7.05819 4.83478 6.90943 4.51905 6.6491 4.24351C6.38877 3.95648 6.04166 3.7613 5.60778 3.65797V7.37783C6.43836 7.56153 7.11398 7.75671 7.63464 7.96337C8.1553 8.15855 8.59538 8.47427 8.95488 8.91055C9.31439 9.33535 9.49414 9.92663 9.49414 10.6844ZM2.65117 5.34569C2.65117 5.81641 2.79993 6.1838 3.09745 6.44787C3.40736 6.71193 3.84125 6.92433 4.3991 7.08507V3.60631C3.86604 3.66371 3.43836 3.84167 3.11604 4.14018C2.80612 4.43868 2.65117 4.84052 2.65117 5.34569ZM5.60778 12.5788C6.15323 12.4984 6.58092 12.2975 6.89083 11.976C7.20075 11.643 7.35571 11.247 7.35571 10.7877C7.35571 10.3285 7.20075 9.97255 6.89083 9.71997C6.59331 9.4559 6.16563 9.24351 5.60778 9.08277V12.5788Z" fill="#9568FF"/>
</svg>
