<svg width="45" height="47" viewBox="0 0 45 47" fill="none" xmlns="http://www.w3.org/2000/svg">
<rect x="1.5" y="1.5" width="42" height="44" rx="13.51" fill="#F4F0FF"/>
<rect x="1.5" y="1.5" width="42" height="44" rx="13.51" stroke="#9568FF" stroke-width="3"/>
<path d="M13.5 28.7589C13.5 27.6421 14.1954 26.6458 15.2371 26.2702C19.9338 24.5766 25.0662 24.5766 29.7629 26.2702C30.8046 26.6458 31.5 27.6421 31.5 28.7589V30.4666C31.5 32.008 30.1478 33.1921 28.6364 32.9741L27.4093 32.7971C24.153 32.3274 20.847 32.3274 17.5907 32.7971L16.3636 32.9741C14.8522 33.1921 13.5 32.008 13.5 30.4666V28.7589Z" fill="#9568FF"/>
<path d="M17.5 19C17.5 21.7614 19.7386 24 22.5 24C25.2614 24 27.5 21.7614 27.5 19C27.5 16.2386 25.2614 14 22.5 14C19.7386 14 17.5 16.2386 17.5 19Z" fill="#9568FF"/>
</svg>
