<?xml version="1.0" encoding="UTF-8"?>
<svg id="Layer_2" data-name="Layer 2" xmlns="http://www.w3.org/2000/svg" viewBox="0 0 999.28 697.43">
  <defs>
    <style>
      .cls-1 {
        stroke-width: 0px;
      }
    </style>
  </defs>
  <g id="Layer_1-2" data-name="Layer 1">
    <g>
      <path class="cls-1" d="m0,424.54c1.21-1.81,2.81-3.48,3.58-5.46,8.67-22.28,17.12-44.66,25.82-66.93,11.87-30.38,23.92-60.7,35.89-91.04,2.24-5.68,4.51-11.34,6.69-17.04,2.56-6.69,5.22-8.59,12.68-8.59,54.77-.02,109.53-.01,164.3-.01,34.46,0,68.92.14,103.37-.07,12.19-.07,12.22,2.39,16.1,10.98,2.81,6.22,5.65,12.53,7.35,19.09.8,3.08-.29,7.25-1.84,10.25-12.27,23.7-16.9,48.98-14.64,75.29,2.2,25.6,10.7,49.19,26.17,70.03,4.79,6.45,4.41,12.1-.9,15.99-1.12.82-2.59,1.4-3.96,1.57-2.47.3-4.98.25-7.48.25-119.35,0-238.71-.02-358.06.09-6.19,0-11.72-.3-15.07-6.39,0-2.66,0-5.33,0-7.99Zm359.75-5.68c-.98-2.03-1.55-3.33-2.21-4.57-9.1-17.12-15.45-35.35-17.45-54.51-3.2-30.64,0-60.68,13.69-88.85,2.85-5.87-1.54-9.76-3.2-14.26-.48-1.3-4.52-1.82-6.92-1.82-82.91-.09-165.82-.08-248.73-.08h-6.37c-21.43,54.73-42.68,109-64.25,164.09h335.44Z"/>
      <path class="cls-1" d="m918.33,394.19c-12.81,7.31-24.93,14.34-37.17,21.16-7.89,4.39-15.18.12-15.28-8.91-.14-12.32-.2-24.64.03-36.96.08-4.27-1.22-5.99-5.62-5.98-39.29.09-78.58.09-117.87,0-3.87,0-5.17,1.17-5.08,5.17.26,12.31.15,24.64.07,36.96-.06,9.53-7.06,13.81-15.52,9.25-10.87-5.86-21.63-11.96-32.25-18.26-3.44-2.04-5.26-2.06-7.37,1.69-6.73,11.93-13.84,23.65-20.7,35.52-1.94,3.35-4.55,5.01-8.44,4.98-11.15-.08-22.31.15-33.46-.11-7.79-.18-11.54-7.74-7.58-14.56,5.47-9.42,11.47-18.59,16.19-28.38,8.98-18.63,12.42-38.56,12.1-59.22-.34-21.99-5.19-42.82-15.71-62.15-3.8-6.98.67-12.49,2.4-18.45,1.22-4.21,3.37-8.14,5.03-12.22,2.81-6.96,4.65-8.3,12.28-8.3,43.45-.02,86.91-.01,130.36-.01,46.28,0,92.57,0,138.85,0,9.58,0,10.55.55,14.02,9.34,8.29,21.02,16.43,42.09,24.7,63.12,11.3,28.73,22.67,57.43,34.01,86.14,4.14,10.47,8.63,20.81,12.31,31.43,2.49,7.16-2.48,13.39-8.8,13.34-13.32-.11-26.63-.06-39.95,0-3.75.02-6.17-1.77-7.98-4.9-6.86-11.84-13.78-23.64-20.71-35.43-.82-1.39-1.79-2.68-2.85-4.25Zm55.54,25c-.13-1.72-.06-2.26-.23-2.7-6.01-15.59-11.98-31.19-18.09-46.73-6.92-17.58-14.04-35.08-20.94-52.67-7.42-18.91-14.78-37.84-21.94-56.84-1.65-4.37-4.07-5.62-8.73-5.6-38.78.22-77.57.13-116.35.13-44.61,0-89.22,0-133.83.03-1.77,0-3.89-.08-5.24.81-2.65,1.75-4.51,12.92-3.1,16.01,6.95,15.15,12.13,31.05,13.35,47.54,1.11,14.96-.01,30.17-1.2,45.19-1.34,17.03-7.79,32.7-15.29,47.91-.98,1.98-1.87,4-3.01,6.45,4.95,1.12,8.11.93,10.62-3.65,6.88-12.58,14.27-24.87,21.44-37.29,4.22-7.31,9-8.61,16.47-4.32,7.67,4.41,15.26,8.95,22.94,13.33,2.13,1.22,4.46,2.09,7.36,3.42,0-11.77,0-22.57,0-33.37,0-10.02,2.47-12.49,12.64-12.5,47.27-.02,94.54.13,141.82-.12,10.26-.05,12.53,4.99,12.63,12.53.12,8.99.01,17.98.06,26.96.01,1.9.29,3.8.46,6.01,1.24-.32,1.92-.35,2.45-.65,9.07-5.23,18.09-10.52,27.17-15.74,7.11-4.08,11.64-3.11,15.83,3.84,7.72,12.79,15.18,25.75,22.83,38.59.79,1.32,2.1,3.21,3.27,3.29,5.38.35,10.8.16,16.59.16Z"/>
      <path class="cls-1" d="m474.02,697.42c-66.41,0-132.82,0-199.22,0-2.32,0-4.7.11-6.96-.32-6.81-1.3-10.29-7.55-7.76-13.94,9.38-23.73,18.95-47.38,28.24-71.15,10.7-27.38,21.09-54.89,31.78-82.27,6.17-15.79,12.82-31.39,18.93-47.2,2.24-5.79,6.17-7.24,11.84-7.23,58.58.1,117.17.06,175.76.06,30.96,0,61.91-.02,92.87.01,10.22.01,14.15,7.13,8.98,16.15-1.77,3.08-3.69,6.08-5.41,9.19-1.43,2.57-1.65,4.44,1.74,6.3,10.83,5.94,21.18,12.77,32.12,18.5,8.43,4.42,9.35,14.65-.46,19.98-10.57,5.74-20.87,11.99-31.34,17.91-3.27,1.85-3.68,3.69-1.71,7.09,21.14,36.38,42.12,72.87,63.13,109.33,5.93,10.29,1.7,17.59-10.3,17.59-67.41.03-134.81.02-202.22.02Zm-190.1-19.65h377.59c-.45-1.55-.59-2.95-1.23-4.06-13.59-23.77-27.24-47.5-40.85-71.26-6.87-12-13.9-23.92-20.42-36.11-2.87-5.36-1.01-9.76,4.32-12.87,6.21-3.62,12.5-7.1,18.69-10.74,3.97-2.33,7.84-4.84,12.26-7.58-10.9-6.34-20.88-12.01-30.71-17.91-6.05-3.63-7.22-7.89-4.27-14.19,1.16-2.47,2.55-4.84,4.43-8.35h-7.37c-66.74,0-133.47,0-200.21,0-12.32,0-24.63.07-36.95-.04-3.08-.03-4.84.97-6,3.96-13.66,35.2-27.38,70.37-41.17,105.51-8.25,21.03-16.69,41.99-24.95,63.02-1.27,3.24-2.01,6.69-3.16,10.61Z"/>
      <path class="cls-1" d="m875.55,630.16c-8.7,4.74-17.18,9.17-25.41,14.01-1.56.92-2.98,3.45-3.05,5.29-.31,9.31-.1,18.64-.17,27.97-.06,7.48-3.45,10.88-10.92,10.9-22.81.04-45.62.04-68.43,0-7.59-.01-10.68-3.12-10.75-10.8-.08-8.99-.23-17.99.07-26.97.12-3.61-1.5-5.47-4.27-6.96-7.97-4.32-15.94-8.64-24.69-13.39-8.47,4.78-17.89,10.12-27.33,15.43-5.77,3.25-10.24,2.39-13.82-3.39-5.79-9.35-11.22-18.94-16.74-28.45-6.04-10.4-12.1-20.79-17.98-31.29-3.88-6.93-2.58-11.33,4.21-15.33,7.84-4.62,15.68-9.26,23.62-13.69,2.52-1.41,3.33-3.11,3.26-5.95-.2-8.15-.34-16.31.06-24.45.16-3.3-1.24-4.83-3.62-6.19-7.31-4.17-14.66-8.28-21.94-12.49-8.5-4.92-9.69-8.94-4.84-17.39,10.97-19.16,22.12-38.21,33.08-57.37,3.66-6.41,9.08-8.55,16.42-3.91,7.4,4.68,15.34,8.51,22.72,13.21,3.07,1.95,4.94,1.14,7.51-.46,6.58-4.07,13.18-8.19,20.09-11.64,3.05-1.53,4.2-3.23,4.18-6.38-.06-9.16-.08-18.31,0-27.47.07-7.45,3.53-11.03,10.92-11.06,22.64-.08,45.29-.08,67.93,0,7.27.02,11.21,4.13,11.26,11.46.06,9.16.08,18.31-.01,27.47-.03,3.01,1.03,4.54,3.92,5.99,7.09,3.54,13.97,7.58,20.63,11.89,2.46,1.59,3.95,1.93,6.55.4,8.83-5.19,17.75-10.24,26.84-14.93,4.62-2.39,9.49-.42,12.05,4.02,11.4,19.79,22.73,39.62,34.24,59.35,4.33,7.42,2.46,12.32-4.37,16.28-7.46,4.32-14.98,8.55-22.49,12.81-2.42,1.37-3.77,2.99-3.65,6.19.3,8.31.21,16.64,0,24.96-.07,2.87.75,4.45,3.36,5.88,7.85,4.29,15.54,8.88,23.21,13.48,6.21,3.73,8.41,8.18,4.37,15.21-11.45,19.92-22.96,39.81-34.62,59.61-2.96,5.03-7.39,7.44-14.05,3.69-9.33-5.25-18.62-10.57-27.36-15.53Zm28.65-6.14c.83-.89,1.51-1.4,1.91-2.08,7.56-12.92,15.07-25.87,22.62-38.8,1.65-2.82-.05-4.24-2.22-5.49-6.56-3.77-13.18-7.45-19.68-11.32-7.17-4.28-7.58-7.44-6.85-15.65.9-10.16.81-20.52-.07-30.69-.65-7.52.28-11.55,6.87-15.33,6.42-3.69,12.72-7.61,19.29-11.04,3.51-1.83,4.05-3.56,2.02-6.95-4.01-6.69-7.55-13.66-11.47-20.41-3.88-6.68-8-13.22-12.08-19.95-8.15,4.69-15.75,9.05-23.34,13.43-5.77,3.32-10.26,2.97-15.43-1.09-8.89-6.99-18.33-12.96-29.17-16.62-7.11-2.39-9.26-6-9.26-13.78,0-8.76,0-17.53,0-26.74-16.46,0-32.23-.07-48,.17-1.06.02-2.93,2.4-2.98,3.74-.29,7.98-.08,15.98-.18,23.96-.07,5.17-1.9,9.15-7.16,11.31-10.69,4.39-21.05,9.41-30.02,16.92-6.55,5.49-10.49,5.61-17.99,1.22-7.22-4.22-14.49-8.37-22.25-12.83-8.68,15.06-17.12,29.69-25.72,44.61,8.35,4.83,16.24,9.35,24.08,13.95,5.8,3.41,7.98,7.69,6.84,12.93-2.58,11.82-2.52,23.61-.12,35.48.42,2.06.13,4.91-1.04,6.5-2.14,2.9-4.89,5.62-7.93,7.55-7.05,4.45-14.42,8.39-21.88,12.66,8.89,15.24,17.37,29.79,25.88,44.38,8.09-4.65,15.09-8.67,22.1-12.7,8.34-4.79,10.92-3.96,18.75,1.4,8.24,5.64,17.13,10.47,26.15,14.79,7.73,3.7,10.34,6.61,10.36,15.5,0,6.66.24,13.33-.08,19.97-.21,4.26.88,5.94,5.48,5.71,7.64-.38,15.31-.1,22.97-.1,7.43,0,14.86,0,22.77,0,0-9.4-.01-18.19,0-26.97.01-6.65,2.19-9.99,8.33-12.39,11.01-4.3,21.22-9.93,30.31-17.55,4.12-3.45,8.45-4.69,13.57-1.65,7.97,4.73,16.13,9.14,24.66,13.95Z"/>
      <path class="cls-1" d="m499.59,461.33c-68.71-.85-122.61-54.96-122.46-122.48.14-68.83,54.35-122.5,122.54-122.39,68.11.11,121.91,53.54,122.16,122.24.25,67.23-53.18,121.66-122.24,122.63Zm-102.99-122.03c1.02,57.48,46.34,102.15,102.91,102.05,57.82-.1,103.01-45.83,102.69-103.18-.33-58.87-47.5-102.74-103.82-102.33-56.45.41-102.63,47.71-101.78,103.45Z"/>
      <path class="cls-1" d="m779.43,223.92c-62.07.77-112.32-50.97-112.07-111.9C667.6,50.07,717.31-.12,779.64,0c62.92.12,111.88,50.62,112.04,112.18.16,60.59-49.59,112.49-112.26,111.74Zm-.14-19.31c51.12.38,92.75-41.25,92.76-92.12,0-52.39-41.22-92.97-92.44-93.05-50.65-.08-92.47,39.88-92.72,92.73-.24,51,41.24,92.32,92.4,92.45Z"/>
      <path class="cls-1" d="m219.73,223.92c-62.6.83-112.48-50.93-112.42-111.5C107.37,49.96,157.15.03,219.59,0c62.71-.03,111.97,50.71,112.04,112.3.08,60.61-49.82,112.3-111.91,111.62Zm-.34-19.31c51.05.07,92.82-41.21,92.7-92.14-.13-52.77-41.56-92.94-92.44-93.03-50.96-.09-92.31,40.17-92.73,92.27-.41,51.44,41.75,93.22,92.47,92.9Z"/>
      <path class="cls-1" d="m744.83,534.81c-.59-32.83,27.19-57.47,57.73-56.91,30.98.57,56.33,25.34,56.37,57.93.04,30.07-25.87,57.9-59.41,56.75-28.68-.98-55.94-25.58-54.7-57.77Zm94.47.29c.69-21.11-17.39-37.78-37.59-38-20.51-.23-37.68,17.28-37.77,38-.08,20.7,17.07,37.87,37.74,37.99,19.5.11,38.64-17.09,37.62-37.99Z"/>
    </g>
  </g>
</svg>