<svg width="26" height="21" viewBox="0 0 26 21" fill="none" xmlns="http://www.w3.org/2000/svg">
<path d="M17.5501 4.59375C17.5501 7.13081 15.513 9.1875 13.0001 9.1875C10.4872 9.1875 8.45009 7.13081 8.45009 4.59375C8.45009 2.05669 10.4872 0 13.0001 0C15.513 0 17.5501 2.05669 17.5501 4.59375Z" fill="white"/>
<path d="M20.8001 16.4062C20.8001 18.9433 17.3079 21 13.0001 21C8.69224 21 5.20005 18.9433 5.20005 16.4062C5.20005 13.8692 8.69224 11.8125 13.0001 11.8125C17.3079 11.8125 20.8001 13.8692 20.8001 16.4062Z" fill="white"/>
<path d="M6.65869 1.3125C6.88939 1.3125 7.11461 1.33535 7.33209 1.37886C6.80226 2.32898 6.50002 3.42573 6.50002 4.59375C6.50002 5.73333 6.78773 6.80508 7.29379 7.73897C7.08821 7.77765 6.87588 7.7979 6.65869 7.7979C4.81993 7.7979 3.32933 6.34609 3.32933 4.5552C3.32933 2.76431 4.81993 1.3125 6.65869 1.3125Z" fill="white"/>
<path d="M4.48156 19.6691C3.74326 18.7781 3.25001 17.6846 3.25001 16.4062C3.25001 15.167 3.71356 14.1015 4.41453 13.2257C1.93844 13.4197 0 14.7869 0 16.4448C0 18.1183 1.9725 19.4956 4.48156 19.6691Z" fill="white"/>
<path d="M19.5 4.59375C19.5 5.73333 19.2123 6.80508 18.7062 7.73897C18.9119 7.77765 19.1241 7.7979 19.3414 7.7979C21.1801 7.7979 22.6707 6.34609 22.6707 4.5552C22.6707 2.76431 21.1801 1.3125 19.3414 1.3125C19.1106 1.3125 18.8855 1.33535 18.668 1.37886C19.1977 2.32898 19.5 3.42573 19.5 4.59375Z" fill="white"/>
<path d="M21.5185 19.6691C24.0275 19.4956 26 18.1183 26 16.4448C26 14.7869 24.0616 13.4197 21.5854 13.2257C22.2864 14.1015 22.75 15.167 22.75 16.4062C22.75 17.6846 22.2568 18.7781 21.5185 19.6691Z" fill="white"/>
</svg>
