<svg width="20" height="20" viewBox="0 0 20 20" fill="none" xmlns="http://www.w3.org/2000/svg">
<path fill-rule="evenodd" clip-rule="evenodd" d="M18.1555 7.84742C18.1036 7.84411 18.0471 7.84413 17.9886 7.84416H15.6769C13.7837 7.84416 12.1636 9.34616 12.1636 11.3049C12.1636 13.2636 13.7837 14.7656 15.6769 14.7656H17.9886C18.0471 14.7656 18.1036 14.7656 18.1555 14.7623C18.9245 14.7134 19.6046 14.1069 19.6618 13.2597C19.6656 13.2041 19.6655 13.1443 19.6655 13.0888V9.52096C19.6655 9.46548 19.6656 9.40563 19.6618 9.35005C19.6046 8.50294 18.9245 7.89635 18.1555 7.84742ZM15.4734 12.2277C15.9607 12.2277 16.3559 11.8145 16.3559 11.3049C16.3559 10.7952 15.9607 10.382 15.4734 10.382C14.9859 10.382 14.5907 10.7952 14.5907 11.3049C14.5907 11.8145 14.9859 12.2277 15.4734 12.2277Z" fill="white"/>
<path fill-rule="evenodd" clip-rule="evenodd" d="M17.988 16.1499C18.1245 16.1464 18.2278 16.2738 18.1908 16.4063C18.007 17.0638 17.7152 17.6241 17.2471 18.096C16.5618 18.7866 15.693 19.0931 14.6194 19.2385C13.5763 19.3799 12.2434 19.3799 10.5606 19.3799H8.62598C6.94317 19.3799 5.6103 19.3799 4.56716 19.2385C3.49361 19.0931 2.62469 18.7866 1.93944 18.096C1.25419 17.4053 0.950082 16.5296 0.805748 15.4476C0.665499 14.3963 0.665518 13.053 0.665528 11.3569V11.2528C0.665509 9.55679 0.665499 8.21349 0.805748 7.16216C0.950082 6.08018 1.25419 5.20444 1.93944 4.5138C2.62469 3.82317 3.49361 3.51667 4.56716 3.37121C5.61029 3.22985 6.94316 3.22987 8.62598 3.22988H10.5606C12.2434 3.22986 13.5763 3.22985 14.6194 3.37121C15.693 3.51667 16.5618 3.82317 17.2471 4.5138C17.7152 4.98565 18.007 5.54602 18.1908 6.2035C18.2278 6.33599 18.1245 6.46346 17.988 6.45988L15.677 6.45989C13.0795 6.45989 10.7902 8.52794 10.7902 11.3049C10.7902 14.0818 13.0795 16.1499 15.677 16.1499H17.988ZM4.09927 6.92132C3.72 6.92132 3.41253 7.2312 3.41253 7.61346C3.41253 7.99575 3.72 8.30564 4.09927 8.30564H7.76193C8.14121 8.30564 8.44871 7.99575 8.44871 7.61346C8.44871 7.2312 8.14121 6.92132 7.76193 6.92132H4.09927Z" fill="white"/>
<path d="M6.15335 2.30305L8.01423 0.932077C9.01354 0.195818 10.3675 0.195818 11.3668 0.932077L13.2374 2.31025C12.4553 2.27983 11.5819 2.27986 10.6243 2.27988H8.5622C7.68718 2.27986 6.8824 2.27984 6.15335 2.30305Z" fill="white"/>
</svg>
