<svg width="13" height="15" viewBox="0 0 13 15" fill="none" xmlns="http://www.w3.org/2000/svg">
<path d="M11.3125 6.98474C12.0234 6.98474 12.625 7.5863 12.625 8.29724V13.5472C12.625 14.2855 12.0234 14.8597 11.3125 14.8597H1.6875C0.949219 14.8597 0.375 14.2855 0.375 13.5472V8.29724C0.375 7.5863 0.949219 6.98474 1.6875 6.98474H2.34375V5.01599C2.34375 2.74646 4.20312 0.859741 6.5 0.859741C8.76953 0.859741 10.6562 2.74646 10.6562 5.01599V6.98474H11.3125ZM8.46875 6.98474V5.01599C8.46875 3.94958 7.56641 3.04724 6.5 3.04724C5.40625 3.04724 4.53125 3.94958 4.53125 5.01599V6.98474H8.46875Z" fill="#9568FF"/>
</svg>
