<svg width="17" height="11" viewBox="0 0 17 11" fill="none" xmlns="http://www.w3.org/2000/svg">
<path d="M14.5 0.125C15.4912 0.125 16.3125 0.946289 16.3125 1.9375V9.1875C16.3125 10.207 15.4912 11 14.5 11H1.8125C0.792969 11 0 10.207 0 9.1875V1.9375C0 0.946289 0.792969 0.125 1.8125 0.125H14.5ZM7.70312 3.75C7.44824 3.75 7.25 3.97656 7.25 4.20312C7.25 4.45801 7.44824 4.65625 7.70312 4.65625H14.0469C14.2734 4.65625 14.5 4.45801 14.5 4.20312C14.5 3.97656 14.2734 3.75 14.0469 3.75H7.70312ZM7.70312 7.375H14.0469C14.2734 7.375 14.5 7.17676 14.5 6.92188C14.5 6.69531 14.2734 6.46875 14.0469 6.46875H7.70312C7.44824 6.46875 7.25 6.69531 7.25 6.92188C7.25 7.17676 7.44824 7.375 7.70312 7.375ZM4.64453 2.84375C4.64453 2.53223 4.38965 2.27734 4.0498 2.27734C3.73828 2.27734 3.4834 2.53223 3.4834 2.84375V3.01367C3.3418 3.07031 3.17188 3.09863 3.05859 3.18359C2.63379 3.35352 2.26562 3.72168 2.15234 4.23145C2.12402 4.51465 2.15234 4.79785 2.26562 5.05273C2.37891 5.30762 2.57715 5.47754 2.74707 5.61914C3.08691 5.8457 3.51172 5.95898 3.85156 6.07227H3.9082C4.30469 6.21387 4.55957 6.29883 4.72949 6.41211C4.81445 6.46875 4.84277 6.49707 4.84277 6.52539C4.84277 6.55371 4.87109 6.61035 4.84277 6.72363C4.84277 6.80859 4.78613 6.89355 4.61621 6.97852C4.44629 7.03516 4.16309 7.06348 3.79492 7.00684C3.625 6.97852 3.3418 6.89355 3.05859 6.80859C3.00195 6.78027 2.94531 6.75195 2.88867 6.72363C2.57715 6.63867 2.26562 6.80859 2.18066 7.0918C2.06738 7.40332 2.2373 7.71484 2.52051 7.7998C2.54883 7.82812 2.60547 7.82812 2.66211 7.85645C2.86035 7.94141 3.22852 8.05469 3.4834 8.11133V8.28125C3.4834 8.62109 3.73828 8.87598 4.0498 8.87598C4.38965 8.87598 4.64453 8.62109 4.64453 8.28125V8.13965C4.78613 8.11133 4.92773 8.05469 5.06934 7.99805C5.52246 7.82812 5.8623 7.45996 5.97559 6.92188C6.00391 6.61035 6.00391 6.32715 5.89062 6.07227C5.77734 5.81738 5.5791 5.64746 5.40918 5.50586C5.06934 5.25098 4.58789 5.10938 4.24805 4.99609H4.21973C3.82324 4.88281 3.56836 4.79785 3.39844 4.68457C3.31348 4.62793 3.28516 4.59961 3.28516 4.57129C3.28516 4.57129 3.25684 4.54297 3.28516 4.42969C3.28516 4.37305 3.3418 4.28809 3.51172 4.20312C3.68164 4.11816 3.96484 4.08984 4.33301 4.11816C4.44629 4.14648 4.84277 4.23145 4.92773 4.25977C5.23926 4.34473 5.55078 4.14648 5.63574 3.86328C5.7207 3.55176 5.52246 3.24023 5.23926 3.15527C5.09766 3.12695 4.81445 3.07031 4.64453 3.04199V2.84375Z" fill="#9568FF"/>
</svg>
