<svg width="16" height="14" viewBox="0 0 16 14" fill="none" xmlns="http://www.w3.org/2000/svg">
<path d="M15.7656 6.36719C15.8203 6.47656 15.8477 6.61328 15.8477 6.77734C15.8477 6.91406 15.8203 7.05078 15.7656 7.16016C14.2891 10.0586 11.3359 12 8 12C4.63672 12 1.68359 10.0586 0.207031 7.16016C0.152344 7.05078 0.125 6.91406 0.125 6.75C0.125 6.61328 0.152344 6.47656 0.207031 6.36719C1.68359 3.46875 4.63672 1.5 8 1.5C11.3359 1.5 14.2891 3.46875 15.7656 6.36719ZM8 10.6875V10.7148C10.1602 10.7148 11.9375 8.9375 11.9375 6.77734V6.75C11.9375 4.58984 10.1602 2.8125 8 2.8125C5.8125 2.8125 4.0625 4.58984 4.0625 6.75C4.0625 8.9375 5.8125 10.6875 8 10.6875ZM8 4.125V4.15234C9.44922 4.15234 10.625 5.30078 10.625 6.75C10.625 8.19922 9.44922 9.375 8 9.375C6.55078 9.375 5.375 8.19922 5.375 6.75C5.375 6.53125 5.40234 6.28516 5.45703 6.06641C5.67578 6.23047 5.94922 6.3125 6.25 6.3125C6.96094 6.3125 7.53516 5.73828 7.53516 5.02734C7.53516 4.72656 7.45312 4.45312 7.28906 4.23438C7.50781 4.17969 7.75391 4.15234 8 4.125Z" fill="#9568FF"/>
</svg>
