<svg width="16" height="16" viewBox="0 0 16 16" fill="none" xmlns="http://www.w3.org/2000/svg">
<path d="M7.88184 0.897461C8.1084 0.8125 8.36328 0.8125 8.58984 0.897461L14.9336 3.61621C15.3301 3.78613 15.5566 4.21094 15.4717 4.63574C15.3867 5.06055 15.0186 5.34375 14.5654 5.34375V5.57031C14.5654 5.9668 14.2822 6.25 13.8857 6.25H2.55762C2.18945 6.25 1.87793 5.9668 1.87793 5.57031V5.34375C1.45312 5.34375 1.08496 5.06055 1 4.63574C0.915039 4.21094 1.1416 3.78613 1.53809 3.61621L7.88184 0.897461ZM8.25 4.4375C8.73145 4.4375 9.15625 4.04102 9.15625 3.53125C9.15625 3.0498 8.73145 2.625 8.25 2.625C7.74023 2.625 7.34375 3.0498 7.34375 3.53125C7.34375 4.04102 7.74023 4.4375 8.25 4.4375ZM4.59668 12.5938H5.72949V7.15625H7.54199V12.5938H8.92969V7.15625H10.7422V12.5938H11.875V7.15625H13.6875V12.7354C13.6875 12.7354 13.7158 12.7354 13.7158 12.7637L15.0752 13.6699C15.415 13.8965 15.5566 14.293 15.4434 14.6895C15.3301 15.0576 14.9902 15.3125 14.5938 15.3125H1.87793C1.48145 15.3125 1.1416 15.0576 1.02832 14.6895C0.915039 14.293 1.05664 13.8965 1.39648 13.6699L2.75586 12.7637C2.75586 12.7354 2.78418 12.7354 2.78418 12.7354V7.15625H4.59668V12.5938Z" fill="#9568FF"/>
</svg>
